<svg width="516" height="420" viewBox="0 0 516 420" fill="none" xmlns="http://www.w3.org/2000/svg">
<g clip-path="url(#clip0_6_2)">
<path d="M475.26 399.307L467.738 399.512L463.397 371.708L474.498 371.404L475.26 399.307Z" fill="#9E616A"/>
<path d="M477.371 406.267L453.117 406.93L453.109 406.635C453.043 404.227 453.975 401.89 455.699 400.139C457.422 398.388 459.797 397.366 462.301 397.297L477.114 396.892L477.371 406.267Z" fill="#2F2E41"/>
<path d="M446.424 400.096L438.903 400.302L434.561 372.497L445.662 372.193L446.424 400.096Z" fill="#9E616A"/>
<path d="M448.535 407.056L424.281 407.719L424.273 407.424C424.208 405.016 425.139 402.68 426.863 400.929C428.586 399.178 430.961 398.155 433.465 398.087L448.279 397.682L448.535 407.056Z" fill="#2F2E41"/>
<path d="M121.623 414.925L115.488 190.812C115.451 189.432 115.984 188.093 116.973 187.089C117.961 186.085 119.322 185.499 120.757 185.46L144.906 184.799C146.341 184.759 147.732 185.27 148.774 186.218C149.815 187.167 150.422 188.475 150.46 189.855L156.61 414.552L121.623 414.925Z" fill="#E6E6E6"/>
<path d="M201.401 413.444L196.523 235.244C196.486 233.864 197.019 232.524 198.008 231.521C198.996 230.517 200.357 229.931 201.792 229.892L225.941 229.231C227.376 229.191 228.767 229.702 229.809 230.65C230.85 231.598 231.457 232.907 231.495 234.287L236.362 412.103L201.401 413.444Z" fill="#E6E6E6"/>
<path d="M53.8798 205.607C53.5244 205.617 53.1738 205.528 52.8706 205.35C52.5673 205.172 52.3243 204.913 52.1708 204.605C52.0174 204.297 51.9602 203.952 52.006 203.613C52.0518 203.274 52.1988 202.954 52.4291 202.693L130.802 113.867L211.44 154.606L287.75 19.9501L370.947 82.1827C371.138 82.3252 371.298 82.5026 371.417 82.7047C371.537 82.9068 371.613 83.1296 371.643 83.3605C371.673 83.5913 371.655 83.8257 371.591 84.0501C371.526 84.2745 371.417 84.4846 371.268 84.6684C371.119 84.8522 370.934 85.0061 370.724 85.1212C370.513 85.2364 370.281 85.3106 370.041 85.3395C369.801 85.3685 369.558 85.3517 369.324 85.2901C369.091 85.2284 368.873 85.1232 368.682 84.9804L288.905 25.3057L212.934 159.365L131.695 118.322L55.2347 204.981C55.0673 205.171 54.8601 205.326 54.6266 205.434C54.3931 205.541 54.1386 205.601 53.8798 205.607Z" fill="#3F3D56"/>
<path d="M53.9775 220.367C63.4651 220.108 70.9538 212.5 70.704 203.375C70.4542 194.251 62.5605 187.064 53.0729 187.324C43.5853 187.584 36.0966 195.191 36.3463 204.316C36.5961 213.441 44.4898 220.627 53.9775 220.367Z" fill="#FB923C"/>
<path d="M131.394 132.625C140.882 132.365 148.371 124.757 148.121 115.633C147.871 106.508 139.977 99.3213 130.49 99.5811C121.002 99.8408 113.513 107.448 113.763 116.573C114.013 125.698 121.907 132.884 131.394 132.625Z" fill="#CCCCCC"/>
<path d="M212.332 173.516C221.82 173.256 229.309 165.649 229.059 156.524C228.809 147.399 220.915 140.213 211.428 140.472C201.94 140.732 194.451 148.34 194.701 157.465C194.951 166.589 202.845 173.776 212.332 173.516Z" fill="#E6E6E6"/>
<path d="M288.473 39.1582C297.961 38.8985 305.449 31.2909 305.2 22.1661C304.95 13.0414 297.056 5.85483 287.568 6.11454C278.081 6.37426 270.592 13.9819 270.842 23.1066C271.092 32.2314 278.985 39.4179 288.473 39.1582Z" fill="#FB923C"/>
<path d="M441.04 158.398C450.527 158.138 458.016 150.53 457.766 141.406C457.517 132.281 449.623 125.094 440.135 125.354C430.648 125.614 423.159 133.221 423.409 142.346C423.658 151.471 431.552 158.658 441.04 158.398Z" fill="#FB923C"/>
<path d="M442.221 270.359C448.671 270.928 464.959 264.836 466.085 273.394C475.204 297.122 477.467 388.973 477.467 388.973L464.599 389.916C464.599 389.916 452.305 317.222 447.01 301.743C445.086 320.786 447.501 393.337 447.501 393.337L435.86 394.246C435.86 394.246 423.712 332.742 423.155 314.607C421.521 301.358 424.099 281.587 422.413 268.781C428.842 270.55 435.572 271.086 442.221 270.359Z" fill="#A0616A"/>
<path d="M360.897 408.283L353.827 149.98C353.736 146.667 356.085 143.915 359.074 143.833L383.222 143.172C386.211 143.09 388.707 145.709 388.798 149.022L395.887 408.002L360.897 408.283Z" fill="#E6E6E6"/>
<path d="M418.446 201.448C415.728 196.448 412.447 191.752 408.662 187.443C407.873 186.603 407.151 185.707 406.501 184.762C405.122 182.597 404.659 180.024 403.758 177.639C401.242 170.953 395.277 165.689 393.669 158.747C393.084 156.224 388.933 163.718 390.163 166.833C392.362 172.471 392.791 178.494 395.543 183.923C398.295 189.351 401.495 194.542 403.894 200.104C405.258 203.261 406.367 206.532 408.319 209.431C410.271 212.33 413.259 214.723 416.799 215.069C416.716 212.93 416.996 210.793 417.626 208.739C418.329 206.394 419.617 203.618 418.446 201.448Z" fill="#9E616A"/>
<path d="M457.148 204.215C456.876 200.047 457.439 195.866 458.806 191.899C459.329 190.379 459.95 188.832 459.851 187.235C459.731 185.75 458.957 184.407 458.251 183.08C455.818 178.511 454.064 173.646 452.334 168.792L449.014 159.642C447.995 158.964 453.829 158.559 455.12 160.183C459.342 165.512 462.599 171.676 465.989 177.53C466.851 178.923 467.593 180.382 468.209 181.892C469.064 184.343 469.508 186.91 469.522 189.497C469.654 194.33 469.123 199.163 468.567 203.973C468.214 206.988 467.733 210.273 465.425 212.326C462.888 209.372 460.341 206.489 457.148 204.215Z" fill="#9E616A"/>
<path d="M440.795 199.878C447.826 199.686 453.376 194.048 453.191 187.286C453.005 180.524 447.156 175.198 440.125 175.39C433.094 175.583 427.544 181.221 427.729 187.983C427.914 194.745 433.764 200.071 440.795 199.878Z" fill="#9E616A"/>
<path d="M429.776 175.702C429.623 175.334 429.58 174.933 429.652 174.542C429.724 174.152 429.907 173.788 430.182 173.492C430.494 173.243 430.913 173.141 431.248 172.902C431.721 172.497 432.105 172.004 432.374 171.452C433.212 170.258 434.462 169.387 435.902 168.993C437.342 168.599 438.879 168.709 440.241 169.302C442.374 170.303 443.703 172.389 445.613 173.766C446.583 174.48 447.7 174.999 448.676 175.712C450.633 177.25 452.052 179.33 452.74 181.67C453.425 183.995 453.853 186.383 454.017 188.795C454.137 189.517 454.127 190.253 453.99 190.972C453.812 191.577 453.539 192.152 453.179 192.677C451.333 195.532 448.867 198.147 445.731 199.68C442.594 201.213 438.736 201.554 435.562 200.126C435.244 200.012 434.967 199.811 434.765 199.548C434.576 199.144 434.521 198.693 434.608 198.257C434.731 196.539 434.331 194.825 433.458 193.324C432.844 192.219 431.944 191.279 431.446 190.132C430.977 188.845 430.754 187.487 430.788 186.123C430.636 182.595 430.789 179.074 429.776 175.702Z" fill="#2D293D"/>
<path d="M41.8709 417.367L38.4572 292.662C38.4134 291.063 40.8007 289.7 43.7892 289.618L67.9378 288.957C70.9263 288.875 73.3846 290.107 73.4284 291.705L76.851 416.735L41.8709 417.367Z" fill="#FB923C"/>
<path d="M514.848 406.045L12.2628 419.803C12.1001 419.807 11.9423 419.749 11.8242 419.642C11.7062 419.534 11.6374 419.386 11.6331 419.23C11.6288 419.073 11.6894 418.921 11.8014 418.808C11.9134 418.694 12.0678 418.627 12.2305 418.623L514.815 404.865C514.977 404.86 515.135 404.918 515.253 405.026C515.371 405.133 515.44 405.282 515.444 405.438C515.449 405.595 515.388 405.747 515.276 405.86C515.164 405.974 515.01 406.041 514.847 406.045L514.848 406.045Z" fill="#E6E6E6"/>
<path d="M281.136 410.378L273.111 117.252C273.009 113.492 275.348 110.378 278.336 110.297L302.485 109.635C305.474 109.554 307.98 112.535 308.083 116.294L316.128 410.185L281.136 410.378Z" fill="#FB923C"/>
<path d="M389.766 165.332C392.816 165.248 395.223 162.803 395.143 159.87C395.063 156.937 392.525 154.627 389.476 154.711C386.426 154.794 384.019 157.239 384.099 160.172C384.18 163.105 386.717 165.415 389.766 165.332Z" fill="#A0616A"/>
<path d="M451.055 161.292C454.104 161.209 456.512 158.763 456.431 155.83C456.351 152.897 453.814 150.587 450.764 150.671C447.715 150.754 445.307 153.2 445.388 156.133C445.468 159.066 448.005 161.376 451.055 161.292Z" fill="#A0616A"/>
<path d="M466.127 221.354C466.653 220.865 470.369 196.038 470.328 195.482C470.177 192.44 460.425 189.228 458.525 190.491C456.733 191.682 453.917 204.862 451.939 207.303L449.678 203.724L432.499 204.194L431.509 206.083C429.219 204.838 427.158 203.69 426.424 203.311C426.171 203.156 425.897 203.035 425.609 202.952C423.813 202.617 422.117 201.906 420.64 200.868C419.201 199.862 412.352 189.103 410.606 189.44C408.633 189.813 402.1 195.555 402.323 200.887C403.164 200.847 414.687 221.599 414.862 222.379C415.793 225.672 419.893 273.958 420.85 276.187C424.966 275.691 421.69 275.096 425.713 276.054C430.045 277.087 434.552 275.718 438.975 275.136C440.817 274.91 442.67 274.78 444.527 274.748C451.277 274.593 460.919 274.689 467.497 276.121C467.421 272.001 463.416 263.194 461.917 259.344C461.703 258.187 461.677 257.004 461.839 255.839C461.979 254.412 464.713 222.966 466.127 221.354Z" fill="#3F3D56"/>
</g>
<defs>
<clipPath id="clip0_6_2">
<rect width="504" height="406" fill="white" transform="translate(0.539467 13.9718) rotate(-1.56804)"/>
</clipPath>
</defs>
</svg>
